<svg version="1.1"
	 xmlns="http://www.w3.org/2000/svg"
	 viewBox="0 0 100 100" style="fill:#8aa8bd">
	<path d="M94.2,77.1c0,3.8-3.1,6.9-6.9,6.9H12.7c-3.8,0-6.9-3.1-6.9-6.9V24.6c0-3.8,3.1-6.9,6.9-6.9h74.6c3.8,0,6.9,3.1,6.9,6.9
		V77.1z M88.7,24.6c0-0.7-0.6-1.4-1.4-1.4H12.7c-0.7,0-1.4,0.6-1.4,1.4v52.5c0,0.7,0.6,1.4,1.4,1.4h15.2v-4.1c0-0.8,0.6-1.4,1.4-1.4
		H32c0.8,0,1.4,0.6,1.4,1.4v4.1h33.2v-4.1c0-0.8,0.6-1.4,1.4-1.4h2.8c0.8,0,1.4,0.6,1.4,1.4v4.1h15.2c0.7,0,1.4-0.6,1.4-1.4V24.6z
		 M44.5,67.5H22.4c-3.1,0-5.5-2.7-5.5-6.4c0-6.7,1.6-14.1,8.5-14.1c2.1,1.2,5,3.3,8.1,3.3s6-2.1,8.1-3.3c6.8,0,8.5,7.4,8.5,14.1
		C50,64.8,47.5,67.5,44.5,67.5z M33.4,48.4c-5.4,0-9.8-4.4-9.8-9.8c0-5.4,4.4-9.8,9.8-9.8s9.8,4.4,9.8,9.8
		C43.2,44,38.8,48.4,33.4,48.4z M83.2,38.4c0,0.8-0.6,1.4-1.4,1.4H56.9c-0.8,0-1.4-0.6-1.4-1.4v-2.8c0-0.8,0.6-1.4,1.4-1.4h24.9
		c0.8,0,1.4,0.6,1.4,1.4V38.4z M83.2,49.3c0,0.9-0.7,1.6-1.6,1.6H57.1c-0.9,0-1.6-0.7-1.6-1.6v-2.4c0-0.9,0.7-1.6,1.6-1.6h24.5
		c0.9,0,1.6,0.7,1.6,1.6V49.3z M83.2,60.5c0,0.8-0.6,1.4-1.4,1.4H56.9c-0.8,0-1.4-0.6-1.4-1.4v-2.8c0-0.8,0.6-1.4,1.4-1.4h24.9
		c0.8,0,1.4,0.6,1.4,1.4V60.5z"/>

</svg>
