
<svg version="1.1"
	 xmlns="http://www.w3.org/2000/svg"
	 viewBox="0 0 100 100" style="fill:#8aa8bd">

	<path d="M92.8,88.8c0,3.6-3,6.6-6.6,6.6H13.2c-3.6,0-6.6-3-6.6-6.6V22.5c0-3.6,3-6.6,6.6-6.6h6.6v-5c0-4.6,3.7-8.3,8.3-8.3h3.3
		c4.6,0,8.3,3.7,8.3,8.3v5h19.9v-5c0-4.6,3.7-8.3,8.3-8.3h3.3c4.6,0,8.3,3.7,8.3,8.3v5h6.6c3.6,0,6.6,3,6.6,6.6V88.8z M86.1,88.8
		v-53H13.2v53H86.1z M33.1,10.9c0-0.9-0.7-1.7-1.7-1.7h-3.3c-0.9,0-1.7,0.7-1.7,1.7v14.9c0,0.9,0.7,1.7,1.7,1.7h3.3
		c0.9,0,1.7-0.7,1.7-1.7V10.9z M47.6,79.1c-0.7,0.6-1.7,0.6-2.4,0L30.3,64.2c-0.6-0.7-0.6-1.7,0-2.3l2.4-2.4c0.6-0.6,1.7-0.6,2.3,0
		l11.4,11.4l23-23c0.7-0.6,1.7-0.6,2.3,0l2.4,2.4c0.6,0.6,0.6,1.7,0,2.3L47.6,79.1z M72.9,10.9c0-0.9-0.7-1.7-1.7-1.7h-3.3
		c-0.9,0-1.7,0.7-1.7,1.7v14.9c0,0.9,0.7,1.7,1.7,1.7h3.3c0.9,0,1.7-0.7,1.7-1.7V10.9z"/>

</svg>
