<svg version="1.1"
	 xmlns="http://www.w3.org/2000/svg"
	 viewBox="0 0 100 100" style="fill:#8aa8bd">

	<path d="M76.3,44.4c0,14.6-16.2,26.3-36.2,26.3c-3.1,0-6.2-0.3-9.1-0.8c-4.3,3-9.1,5.2-14.3,6.6c-1.4,0.4-2.9,0.6-4.4,0.8
		c-0.1,0-0.1,0-0.2,0c-0.8,0-1.5-0.6-1.6-1.5c-0.2-1,0.5-1.6,1-2.3c2-2.3,4.3-4.3,6-8.5C9.3,60.2,3.9,52.8,3.9,44.4
		c0-14.6,16.2-26.3,36.2-26.3S76.3,29.9,76.3,44.4z M10.5,44.4c0,5.7,3.8,11.1,10.4,14.9l5,2.9l-1.8,4.3c1.1-0.6,2.2-1.3,3.2-2
		l2.3-1.6l2.7,0.5c2.6,0.5,5.2,0.7,7.9,0.7c16.1,0,29.6-9.1,29.6-19.8c0-10.7-13.6-19.8-29.6-19.8S10.5,33.7,10.5,44.4z M88.4,86.8
		c0.6,0.7,1.2,1.3,1,2.3c-0.2,0.9-1,1.6-1.8,1.5c-1.5-0.2-3-0.5-4.4-0.8c-5.2-1.3-10-3.6-14.3-6.6C66.1,83.6,63,84,59.9,84
		c-9.3,0-17.9-2.6-24.3-6.8c1.5,0.1,3,0.2,4.5,0.2c11.1,0,21.5-3.2,29.5-9c8.6-6.3,13.3-14.8,13.3-24c0-2.7-0.4-5.3-1.2-7.8
		c8.7,4.8,14.4,12.4,14.4,21c0,8.4-5.4,15.8-13.7,20.6C84.2,82.5,86.4,84.5,88.4,86.8z"/>

</svg>
