<svg version="1.1"
	 xmlns="http://www.w3.org/2000/svg"
	 viewBox="0 0 100 100" style="fill:#8aa8bd">
	
	<path d="M96.8,21c0,1.8-1.5,3.3-3.3,3.3H6.6c-1.8,0-3.3-1.5-3.3-3.3v-6.7c0-1.8,1.5-3.3,3.3-3.3h86.9c1.8,0,3.3,1.5,3.3,3.3V21z
		 M96.8,41c0,1.8-1.5,3.3-3.3,3.3H6.6c-1.8,0-3.3-1.5-3.3-3.3v-6.7c0-1.8,1.5-3.3,3.3-3.3h86.9c1.8,0,3.3,1.5,3.3,3.3V41z
		 M96.8,61.1c0,1.8-1.5,3.3-3.3,3.3H6.6c-1.8,0-3.3-1.5-3.3-3.3v-6.7c0-1.8,1.5-3.3,3.3-3.3h86.9c1.8,0,3.3,1.5,3.3,3.3V61.1z
		 M96.8,81.1c0,1.8-1.5,3.3-3.3,3.3H6.6c-1.8,0-3.3-1.5-3.3-3.3v-6.7c0-1.8,1.5-3.3,3.3-3.3h86.9c1.8,0,3.3,1.5,3.3,3.3V81.1z"/>

</svg>
