<?xml version="1.0" encoding="utf-8"?>
<!-- Generator: Adobe Illustrator 16.0.0, SVG Export Plug-In . SVG Version: 6.00 Build 0)  -->
<!DOCTYPE svg PUBLIC "-//W3C//DTD SVG 1.1//EN" "http://www.w3.org/Graphics/SVG/1.1/DTD/svg11.dtd">
<svg version="1.1" id="Layer_1" xmlns="http://www.w3.org/2000/svg" xmlns:xlink="http://www.w3.org/1999/xlink" x="0px" y="0px"
	 width="100px" height="100px" viewBox="0 0 100 100" style="enable-background:new 0 0 100 100;" xml:space="preserve">
<style type="text/css">
<![CDATA[
	.st0{fill:#8AA8BD;}
]]>
</style>
<g>
	<g>
		<path class="st0" d="M85.4,31.2c-0.8,0.3-1.5,0.7-2.2,1.1c-0.7,0.4-1.4,0.9-2,1.4c2.8,3.2,5,7,6.4,11.2c2.5,7.9,1.8,16.3-2,23.7
			c-5.4,10.4-16,16.8-27.7,16.8c-2.2,0-4.4-0.2-6.5-0.7c0,0.8,0,1.6,0,2.5c0,0.8,0,1.6,0,2.4c2.1,0.4,4.3,0.6,6.4,0.6
			c13,0,25.6-7.1,31.9-19.4C96.7,57.5,94.5,41.9,85.4,31.2z"/>
		<path class="st0" d="M58,23.2c1.6,0,3.1,0.1,4.6,0.4c0.9-0.5,1.9-1.2,2.7-1.9c0.7-0.6,1.3-1.2,1.9-2c-3.1-0.8-6.2-1.3-9.3-1.3v2.4
			L58,23.2L58,23.2z"/>
		<path class="st0" d="M43.7,26.6c4.3-2.2,9.2-3.4,14.2-3.4v-2.4l0-2.4h0c-6,0-11.9,1.5-17.1,4.4c0.6,0.5,1.1,1.1,1.6,1.8
			C42.9,25.2,43.3,25.9,43.7,26.6z"/>
		<path class="st0" d="M57.9,75.6c-2.2,0-4.5-0.4-6.7-1.1c0,0.8,0,1.7,0.1,2.5c0,0.1,0,0.1,0,0.2c0,0.8,0,1.7,0.1,2.5
			c2.2,0.6,4.4,0.9,6.6,0.9c9.5,0,18.7-5.2,23.3-14.2c5-9.7,3.4-21.1-3.3-29c-0.5,0.7-0.9,1.5-1.3,2.3c0,0.1,0,0.1-0.1,0.2
			c-0.4,0.9-0.8,1.8-1,2.6c4.2,6.2,5,14.5,1.3,21.7C73.1,71.4,65.7,75.6,57.9,75.6z"/>
		<path class="st0" d="M64.9,24c-5.8,4-12.6,4.2-12.6,4.2c6.5,0,11,2,14,4.6c1.2,1.1,2.2,2.3,3,3.5c0.6,1,1.2,2,1.6,3
			c2,4.5,1.9,8.9,1.9,9.4c0-0.5,0.2-3.9,1.6-7.8c0.3-0.8,0.7-1.6,1.1-2.4c0-0.1,0-0.1,0.1-0.1c0.4-0.7,0.8-1.5,1.3-2.2
			c0.9-1.3,2-2.5,3.3-3.6c0.6-0.5,1.3-1,2-1.4c0.7-0.4,1.4-0.8,2.2-1.2c2.5-1.1,5.5-1.8,9.1-1.8c0,0,0,0,0,0
			c-20.3,0-20.5-20.6-20.5-20.6c0,5.5-1.6,9.6-3.9,12.6c-0.6,0.7-1.1,1.4-1.8,2C66.4,22.8,65.7,23.4,64.9,24z"/>
		<path class="st0" d="M8.5,94h39c0.6,0,1.2-0.2,1.7-0.7c0.4-0.5,0.7-1.1,0.7-1.7c0-0.8,0-1.6,0-2.4c0-0.8,0-1.6,0-2.5
			c0-0.8,0-1.7,0-2.5c0-1.8-0.1-3.5-0.1-5.1c0-0.9,0-1.7-0.1-2.6c0-0.1,0-0.1,0-0.2c0-0.9-0.1-1.8-0.1-2.7
			c-0.9-26.4-3.5-39.7-7.2-46.5c-0.4-0.8-0.9-1.4-1.3-2c-0.5-0.7-1.1-1.3-1.6-1.8c-1.2-1.1-2.4-1.7-3.7-2.2v0.6H20.3v-0.8
			c-8,2.4-14,14.1-14.2,70.5c0,0.6,0.2,1.2,0.7,1.7C7.3,93.8,7.9,94,8.5,94z M19.7,34.8c1.9,0,3.5,3,4.4,7.4
			c0.4,2.1,0.7,4.6,0.7,7.2c0,0,0,0.1,0,0.1c0,1.9-0.1,3.6-0.4,5.3c-0.4,2.6-1,4.8-1.7,6.4c-0.8,1.7-1.9,2.8-3,2.8
			c-2.8,0-5.1-6.5-5.1-14.6C14.7,41.3,16.9,34.8,19.7,34.8z"/>
		<path class="st0" d="M34.1,20.1v-0.7V8.2C34,8.1,33.9,8,33.7,7.8c-0.3-0.2-0.8-0.5-1.3-0.8c-0.6-0.3-1.3-0.6-2.1-0.8
			c-1.2-0.3-2.7-0.4-4.4,0c-0.7,0.2-1.4,0.4-2.1,0.8c-0.4,0.2-0.9,0.5-1.3,0.8c-0.2,0.1-0.4,0.3-0.6,0.4v10.9V20v0.3h12.2V20.1z"/>
	</g>
</g>
<g>
</g>
<g>
</g>
<g>
</g>
<g>
</g>
<g>
</g>
<g>
</g>
</svg>
