
<svg version="1.1"
	 xmlns="http://www.w3.org/2000/svg"
	 viewBox="0 0 100 100" style="fill:#8aa8bd">

	<path d="M93.8,40.2c0,2-1.7,3.6-3.6,3.6H64.6c-1.5,0-2.8-0.9-3.4-2.3c-0.6-1.3-0.3-2.9,0.8-3.9l7.9-7.9c-5.4-5-12.4-7.8-19.9-7.8
		c-16.1,0-29.2,13.1-29.2,29.2c0,16.1,13.1,29.2,29.2,29.2c9.1,0,17.4-4.1,23-11.3c0.3-0.4,0.8-0.6,1.3-0.7c0.5,0,1,0.2,1.4,0.5
		l7.8,7.9c0.7,0.6,0.7,1.7,0.1,2.5c-8.3,10-20.6,15.8-33.7,15.8c-24.1,0-43.8-19.7-43.8-43.8C6.2,27,25.9,7.3,50,7.3
		c11.2,0,22.1,4.5,30.2,12.1l7.4-7.4c1-1.1,2.6-1.4,4-0.8c1.3,0.6,2.2,1.9,2.2,3.4V40.2z"/>

</svg>
