<?xml version="1.0" encoding="utf-8"?>
<!-- Generator: Adobe Illustrator 16.0.0, SVG Export Plug-In . SVG Version: 6.00 Build 0)  -->
<!DOCTYPE svg PUBLIC "-//W3C//DTD SVG 1.1//EN" "http://www.w3.org/Graphics/SVG/1.1/DTD/svg11.dtd">
<svg version="1.1" id="Layer_1" xmlns="http://www.w3.org/2000/svg" xmlns:xlink="http://www.w3.org/1999/xlink" x="0px" y="0px"
	 width="100px" height="100px" viewBox="0 0 100 100" style="enable-background:new 0 0 100 100;" xml:space="preserve">
<style type="text/css">
<![CDATA[
	.st0{fill:#8AA8BD;}
]]>
</style>
<g>
	<path class="st0" d="M70.8,3.3l-41.5,0c-7.3,0-13.5,6.2-13.5,13.5v66.5c0,7.3,6.2,13.5,13.5,13.5h41.6c7.3,0,13.5-6.2,13.5-13.5
		V16.8C84.3,9.4,78.1,3.3,70.8,3.3z M29.2,9.5l41.5,0c3.9,0,7.3,3.4,7.3,7.2v20.4H22V16.8C22,12.9,25.3,9.5,29.2,9.5z M70.8,90.5
		H29.2c-3.9,0-7.3-3.4-7.3-7.3V41.3H78v41.9C78,87.1,74.7,90.5,70.8,90.5z"/>
	<path class="st0" d="M30.3,33.4c1.7,0,3.1-1.4,3.1-3.1V15.7c0-1.7-1.4-3.1-3.1-3.1c-1.7,0-3.1,1.4-3.1,3.1v14.5
		C27.1,32,28.5,33.4,30.3,33.4z"/>
	<path class="st0" d="M30.3,43.8c-1.7,0-3.1,1.4-3.1,3.1v27c0,1.7,1.4,3.1,3.1,3.1c1.7,0,3.1-1.4,3.1-3.1v-27
		C33.4,45.2,32,43.8,30.3,43.8z"/>
	<path class="st0" d="M72.7,35.5c1.2,0,2.1-0.9,2.1-2.1v-8.1c0-1.1-0.9-2.1-2.1-2.1c-1.1,0-2.1,0.9-2.1,2.1v8.1
		C70.6,34.5,71.5,35.5,72.7,35.5z"/>
	<path class="st0" d="M72.9,45c-1.2,0-2.1,0.9-2.1,2.1v35.3c0,1.1,0.9,2.1,2.1,2.1c1.1,0,2.1-0.9,2.1-2.1V47.1
		C74.9,45.9,74,45,72.9,45z"/>
	<path class="st0" d="M72.9,19.7c1.1,0,2.1-0.9,2.1-2.1v-2.3c0-1.1-0.9-2.1-2.1-2.1c-1.2,0-2.1,0.9-2.1,2.1v2.3
		C70.8,18.8,71.7,19.7,72.9,19.7z"/>
</g>
<g>
</g>
<g>
</g>
<g>
</g>
<g>
</g>
<g>
</g>
<g>
</g>
</svg>
