<svg version="1.1"
	 xmlns="http://www.w3.org/2000/svg"
	 viewBox="0 0 100 100" style="fill:#8aa8bd">

	<path d="M93.8,57.2c-0.3,0.4-0.8,0.6-1.2,0.7c-0.1,0-0.1,0-0.2,0c-0.5,0-0.9-0.1-1.2-0.4L50,23.2L8.9,57.4
		c-0.4,0.3-0.9,0.5-1.4,0.4c-0.5-0.1-1-0.3-1.2-0.7l-3.7-4.4c-0.7-0.8-0.5-2,0.2-2.7l42.7-35.6c2.5-2.1,6.5-2.1,9,0L69,26.7V15.1
		c0-1.1,0.8-1.9,1.9-1.9h11.4c1.1,0,1.9,0.8,1.9,1.9v24.2l13,10.8c0.8,0.7,0.9,1.9,0.2,2.7L93.8,57.2z M84.2,85.4
		c0,2.1-1.7,3.8-3.8,3.8H57.6V66.4H42.4v22.8H19.6c-2.1,0-3.8-1.7-3.8-3.8V56.9c0-0.1,0.1-0.2,0.1-0.4L50,28.4l34.1,28.1
		c0.1,0.1,0.1,0.2,0.1,0.4V85.4z"/>

</svg>
