<?xml version="1.0" encoding="utf-8"?>
<!-- Generator: Adobe Illustrator 16.0.0, SVG Export Plug-In . SVG Version: 6.00 Build 0)  -->
<!DOCTYPE svg PUBLIC "-//W3C//DTD SVG 1.1//EN" "http://www.w3.org/Graphics/SVG/1.1/DTD/svg11.dtd">
<svg version="1.1" id="Layer_1" xmlns="http://www.w3.org/2000/svg" xmlns:xlink="http://www.w3.org/1999/xlink" x="0px" y="0px"
	 width="100px" height="100px" viewBox="0 0 100 100" style="enable-background:new 0 0 100 100;" xml:space="preserve">
<style type="text/css">
<![CDATA[
	.st0{fill:#8AA8BD;}
]]>
</style>
<g>
	<path class="st0" d="M21.9,11.8c-0.9,0.9-0.9,2.4,0,3.3c0.9,0.9,2.4,0.9,3.3,0c1.1-1.1,2.9-1.1,4.1,0c0.5,0.5,1,0.7,1.6,0.7
		c0.6,0,1.2-0.2,1.6-0.7c0.9-0.9,0.9-2.4,0-3.3C29.6,8.9,24.8,8.9,21.9,11.8z"/>
	<path class="st0" d="M21.1,10c1.6-1.6,3.8-2.5,6.1-2.5c2.3,0,4.4,0.9,6.1,2.5c0.5,0.5,1,0.7,1.6,0.7c0.6,0,1.2-0.2,1.6-0.7
		c0.9-0.9,0.9-2.4,0-3.3c-2.5-2.5-5.8-3.9-9.3-3.9c-3.5,0-6.8,1.4-9.3,3.9C17,7.6,17,9.1,17.9,10C18.8,10.9,20.2,10.9,21.1,10
		L21.1,10z"/>
	<path class="st0" d="M80.5,17h-61c-1.7,0-3.1,1.4-3.1,3.1v74c0,1.7,1.4,3.1,3.1,3.1h61c1.7,0,3.1-1.4,3.1-3.1v-74
		C83.6,18.4,82.2,17,80.5,17L80.5,17z M77.4,27.5h-4v-4.3h4V27.5z M63.2,27.5v-4.3h4v4.3H63.2z M57.1,23.2v4.3H22.6v-4.3H57.1z
		 M22.6,91V33.6h54.8V91H22.6z"/>
	<path class="st0" d="M50,37.6c-12.9,0-23.4,10.5-23.4,23.4S37.1,84.5,50,84.5c12.9,0,23.4-10.5,23.4-23.4S62.9,37.6,50,37.6z
		 M61.2,48c3,2.7,4.9,7.2,4.9,11.2s-1.6,7.8-4.4,10.7c-4.5,4.5-11.7,4.5-16.2,0c-3.3-3.3-3.3-8.8,0-12.1c2.4-2.4,6.4-2.4,8.8,0
		c1.2,1.2,3.2,1.2,4.4,0c1.2-1.2,1.2-3.2,0-4.4c-4.8-4.8-12.7-4.8-17.5,0c-5.7,5.7-5.7,15.1,0,20.8c1.6,1.6,3.5,2.9,5.6,3.8
		c-7.9-1.6-13.9-8.6-13.9-16.9c0-9.5,7.7-17.3,17.3-17.3C54.3,43.8,58.3,45.3,61.2,48L61.2,48z"/>
</g>
<g>
</g>
<g>
</g>
<g>
</g>
<g>
</g>
<g>
</g>
<g>
</g>
</svg>
