<?xml version="1.0" encoding="utf-8"?>
<svg version="1.1" xmlns="http://www.w3.org/2000/svg"
	 viewBox="0 0 100 100" style="fill:white">

	<path d="M39.2,89.3H20.1C10.6,89.3,3,81.6,3,72.2V30.2c0-9.5,7.7-17.2,17.2-17.2h19.1c1,0,1.9,0.9,1.9,1.9c0,1.7,0.8,5.7-1.9,5.7
		H20.1c-5.2,0-9.5,4.3-9.5,9.5v41.9c0,5.2,4.3,9.5,9.5,9.5h17.2c1.5,0,3.8-0.3,3.8,1.9C41.1,85.3,41.9,89.3,39.2,89.3z M95.2,53.9
		L62.8,86.3c-0.7,0.7-1.7,1.1-2.7,1.1c-2.1,0-3.8-1.7-3.8-3.8V66.4H29.6c-2.1,0-3.8-1.7-3.8-3.8V39.8c0-2.1,1.7-3.8,3.8-3.8h26.7
		V18.8c0-2.1,1.7-3.8,3.8-3.8c1,0,2,0.4,2.7,1.1l32.4,32.4c0.7,0.7,1.1,1.7,1.1,2.7S95.9,53.2,95.2,53.9z"/>

</svg>
