<?xml version="1.0" encoding="utf-8"?>
<!-- Generator: Adobe Illustrator 16.0.0, SVG Export Plug-In . SVG Version: 6.00 Build 0)  -->
<!DOCTYPE svg PUBLIC "-//W3C//DTD SVG 1.1//EN" "http://www.w3.org/Graphics/SVG/1.1/DTD/svg11.dtd">
<svg version="1.1" id="Layer_1" xmlns="http://www.w3.org/2000/svg" xmlns:xlink="http://www.w3.org/1999/xlink" x="0px" y="0px"
	 width="100px" height="100px" viewBox="0 0 100 100" style="enable-background:new 0 0 100 100;" xml:space="preserve">
<style type="text/css">
<![CDATA[
	.st0{fill:#8AA8BD;}
]]>
</style>
<g>
	<g>
		<path class="st0" d="M92.7,28.3L82,14.8c-1-1.3-2.6-2-4.2-2H22.2c-1.6,0-3.2,0.7-4.2,2L7.3,28.3c-1.1,1.4-2,3.3-2,5.8v46.4
			c0,3.7,3,6.7,6.7,6.7h76.2c3.7,0,6.7-3,6.7-6.7V34.1C94.8,31.9,93.8,29.7,92.7,28.3z M40.6,77.9c0.3,0.1,0.5,0.3,0.5,0.6v1.3
			c0,0.4-0.3,0.7-0.7,0.7H20.6c-0.3,0-0.6-0.3-0.6-0.6v-1.4c0-0.3,0.2-0.5,0.5-0.6l7-1.4v-5.8c-5.6-1.4-9.9-6.4-9.9-12.5
			c0-3.3,1.3-6.2,3.3-8.5h19.3c2,2.3,3.3,5.2,3.3,8.5c0,6.1-4.2,11.1-9.9,12.5v5.8L40.6,77.9z M86.8,80c0,0.3-0.2,0.5-0.5,0.5H56.7
			c-0.3,0-0.5-0.2-0.5-0.5v-1.6c0-0.3,0.2-0.5,0.5-0.5h29.6c0.3,0,0.5,0.2,0.5,0.5L86.8,80L86.8,80z M59.4,59.5
			c-0.8,0-1.3-0.9-0.9-1.6l4.2-7.2c0.4-0.7,1.4-0.7,1.9,0l4.2,7.2c0.4,0.7-0.1,1.6-0.9,1.6H66v13.4c0,0.6-0.5,1.1-1.1,1.1h-2.7
			c-0.6,0-1.1-0.5-1.1-1.1V59.5H59.4z M75.5,59.5c-0.8,0-1.3-0.9-0.9-1.6l4.2-7.2c0.4-0.7,1.5-0.7,1.9,0l4.2,7.2
			c0.4,0.7-0.1,1.6-0.9,1.6h-1.7v13.4c0,0.6-0.5,1.1-1.1,1.1h-2.7c-0.6,0-1.1-0.5-1.1-1.1V59.5H75.5z M10.8,28.2l3.6-4.5H34l2.9-3.9
			H17.5l2.6-3.3c0.5-0.6,1.3-1,2.1-1h55.6c0.8,0,1.6,0.4,2.1,1l2.6,3.3H63.1l2.9,3.9h19.7l3.6,4.5H10.8L10.8,28.2z"/>
	</g>
</g>
<g>
</g>
<g>
</g>
<g>
</g>
<g>
</g>
<g>
</g>
<g>
</g>
</svg>
