<?xml version="1.0" encoding="utf-8"?>
<!-- Generator: Adobe Illustrator 16.0.0, SVG Export Plug-In . SVG Version: 6.00 Build 0)  -->
<!DOCTYPE svg PUBLIC "-//W3C//DTD SVG 1.1//EN" "http://www.w3.org/Graphics/SVG/1.1/DTD/svg11.dtd">
<svg version="1.1" id="Layer_1" xmlns="http://www.w3.org/2000/svg" xmlns:xlink="http://www.w3.org/1999/xlink" x="0px" y="0px"
	 width="100px" height="100px" viewBox="0 0 100 100" style="enable-background:new 0 0 100 100;" xml:space="preserve">
<style type="text/css">
<![CDATA[
	.st0{fill:#8AA8BD;}
]]>
</style>
<path id="XMLID_1250_" class="st0" d="M75,49.1H25c-4.4,0-8,3.6-8,8V75c0,4.4,3.6,8,8,8h50c4.4,0,8-3.6,8-8V57.1
	C83,52.7,79.4,49.1,75,49.1z M77.7,75c0,1.5-1.2,2.7-2.7,2.7H25c-1.5,0-2.7-1.2-2.7-2.7V57.1c0-1.5,1.2-2.7,2.7-2.7h50
	c1.5,0,2.7,1.2,2.7,2.7V75z M19.6,38.4h60.7c1.5,0,2.7,1.2,2.7,2.7s-1.2,2.7-2.7,2.7H19.6c-1.5,0-2.7-1.2-2.7-2.7
	S18.2,38.4,19.6,38.4z M85.7,6.2H14.3c-4.4,0-8,3.6-8,8v71.4c0,4.4,3.6,8,8,8h71.4c4.4,0,8-3.6,8-8V14.3C93.8,9.9,90.1,6.2,85.7,6.2
	z M88.4,85.7c0,1.5-1.2,2.7-2.7,2.7H14.3c-1.5,0-2.7-1.2-2.7-2.7v-58H21c1.1,3.1,4.1,5.4,7.6,5.4s6.5-2.2,7.6-5.4h6.3
	c1.1,3.1,4.1,5.4,7.6,5.4s6.5-2.2,7.6-5.4h6.3c1.1,3.1,4.1,5.4,7.6,5.4s6.5-2.2,7.6-5.4h9.4V85.7z M25.9,25c0-1.5,1.2-2.7,2.7-2.7
	c1.5,0,2.7,1.2,2.7,2.7c0,1.5-1.2,2.7-2.7,2.7C27.1,27.7,25.9,26.5,25.9,25z M47.3,25c0-1.5,1.2-2.7,2.7-2.7c1.5,0,2.7,1.2,2.7,2.7
	c0,1.5-1.2,2.7-2.7,2.7C48.5,27.7,47.3,26.5,47.3,25z M68.8,25c0-1.5,1.2-2.7,2.7-2.7s2.7,1.2,2.7,2.7c0,1.5-1.2,2.7-2.7,2.7
	S68.8,26.5,68.8,25z M88.4,22.3H79c-1.1-3.1-4.1-5.4-7.6-5.4s-6.5,2.2-7.6,5.4h-6.3C56.5,19.2,53.5,17,50,17s-6.5,2.2-7.6,5.4h-6.3
	C35,19.2,32.1,17,28.6,17s-6.5,2.2-7.6,5.4h-9.4v-8c0-1.5,1.2-2.7,2.7-2.7h71.4c1.5,0,2.7,1.2,2.7,2.7V22.3z"/>
<g>
</g>
<g>
</g>
<g>
</g>
<g>
</g>
<g>
</g>
<g>
</g>
</svg>
