<svg version="1.1"
	 xmlns="http://www.w3.org/2000/svg"
	 viewBox="0 0 100 100" style="fill:#8aa8bd">

	<path d="M94.5,22.7v56.4c0,4.1-3.3,7.4-7.4,7.4H12.9c-4.1,0-7.4-3.3-7.4-7.4V22.7c0-4.1,3.3-7.4,7.4-7.4h74.2
		C91.2,15.3,94.5,18.7,94.5,22.7z M11.4,22.7v10.4h77.2V22.7c0-0.8-0.7-1.5-1.5-1.5H12.9C12.1,21.2,11.4,21.9,11.4,22.7z M88.6,79.1
		V50.9H11.4v28.2c0,0.8,0.7,1.5,1.5,1.5h74.2C87.9,80.6,88.6,79.9,88.6,79.1z M17.4,68.7h11.9v5.9H17.4V68.7z M35.2,68.7H53v5.9
		H35.2V68.7z"/>

</svg>
