<svg version="1.1" xmlns="http://www.w3.org/2000/svg"
	viewBox="0 0 100 100" style="fill:#8aa8bd">

	<path d="M81.1,70.1c0,8.6-7,15.6-15.6,15.6H20.6c-8.6,0-15.6-7-15.6-15.6V25.2c0-8.6,7-15.6,15.6-15.6h44.9c2.2,0,4.3,0.4,6.3,1.4
		c0.5,0.2,0.9,0.7,1,1.2c0.1,0.6-0.1,1.1-0.5,1.6l-2.6,2.6c-0.3,0.3-0.8,0.5-1.2,0.5c-0.2,0-0.3-0.1-0.5-0.1
		c-0.8-0.2-1.6-0.3-2.4-0.3H20.6c-4.8,0-8.6,3.9-8.6,8.6v44.9c0,4.8,3.9,8.6,8.6,8.6h44.9c4.8,0,8.6-3.9,8.6-8.6V56.4
		c0-0.4,0.2-0.9,0.5-1.2l3.5-3.5c0.4-0.4,0.8-0.5,1.2-0.5c0.2,0,0.4,0.1,0.6,0.2c0.6,0.3,1.1,0.9,1.1,1.6V70.1z M49.6,70.5
		c-1.7,1.7-4.4,1.7-6.2,0L20.2,47.2c-1.7-1.7-1.7-4.4,0-6.2l5.9-5.9c1.7-1.7,4.4-1.7,6.2,0l14.2,14.2l34.9-34.9
		c1.7-1.7,4.4-1.7,6.2,0l5.9,5.9c1.7,1.7,1.7,4.4,0,6.2L49.6,70.5z"/>

</svg>
