<?xml version="1.0" encoding="utf-8"?>
<!-- Generator: Adobe Illustrator 16.0.0, SVG Export Plug-In . SVG Version: 6.00 Build 0)  -->
<!DOCTYPE svg PUBLIC "-//W3C//DTD SVG 1.1//EN" "http://www.w3.org/Graphics/SVG/1.1/DTD/svg11.dtd">
<svg version="1.1" id="Layer_1" xmlns="http://www.w3.org/2000/svg" xmlns:xlink="http://www.w3.org/1999/xlink" x="0px" y="0px"
	 width="100px" height="100px" viewBox="0 0 100 100" style="enable-background:new 0 0 100 100;" xml:space="preserve">
<style type="text/css">
<![CDATA[
	.st0{fill:#8AA8BD;}
]]>
</style>
<g>
	<path class="st0" d="M88.3,84.7h-5.7v-66c0-7.5-6.1-13.6-13.6-13.6c-7.5,0-13.6,6.1-13.6,13.6v25.3c0,1.9-1.3,3.9-3.9,3.9
		c-2.1,0-3.9-1.7-3.9-3.9c0-0.1,0-0.2-0.1-0.3h0.1v-1.6c0-7.5-6.1-13.6-13.6-13.6c-8.9,0-13.6,7-13.6,13.6v13.4
		c-7.9,2.7-13.6,10.2-13.6,19c0,2.7,0.5,5.2,1.5,7.5c1.3,7,7.4,12.3,14.7,12.3c0.1,0,0.2,0,0.3,0c1.2,0.2,2.4,0.3,3.6,0.3h36.3
		c0.7,0,1.3-0.4,1.7-1c0.9,0.7,2,1.2,3.2,1.2h20.3c2.8,0,5.1-2.3,5.1-5.1C93.4,87,91.1,84.7,88.3,84.7z M76.7,84.7V32.4h1.9v52.4
		H76.7z M30,54.6V44.1c0-1.9,1.3-3.9,3.9-3.9c2.1,0,3.9,1.7,3.9,3.9V46c0,7.5,6.1,13.6,13.6,13.6c8.9,0,13.6-7,13.6-13.6V20.7
		c0-2.1,1.7-3.9,3.9-3.9s3.9,1.7,3.9,3.9v64.1H68c-1.4,0-2.6,0.6-3.5,1.4C61.5,69.2,47.4,56.1,30,54.6z M24.2,42.1
		c0-4.8,3.3-9.7,9.7-9.7c5.4,0,9.7,4.4,9.7,9.7v1.6h0.1c0,0.1-0.1,0.2-0.1,0.3c0,4.3,3.5,7.8,7.8,7.8c4.6,0,7.3-3.4,7.7-6.8h0.1
		V18.7c0-5.4,4.4-9.7,9.7-9.7c5.4,0,9.7,4.4,9.7,9.7v9.7h-1.9v-7.8c0-4.3-3.5-7.8-7.8-7.8c-4.3,0-7.8,3.5-7.8,7.8V46
		c0,4.8-3.3,9.7-9.7,9.7c-5.4,0-9.7-4.4-9.7-9.7v-1.9c0-4.3-3.5-7.8-7.8-7.8c-5.1,0-7.8,4-7.8,7.8v10.4c-0.7,0-1.3,0.1-1.9,0.2V42.1
		z M26.7,58.3c14.8,0,27.5,9.4,32.3,22.6H37.7c0.1-0.5,0.1-1,0.1-1.6c0-8.3-6.7-15-15-15c-4.7,0-8.9,2.2-11.6,5.6
		C13.2,63.3,19.4,58.3,26.7,58.3z M22.8,88.5c-5,0-9.1-4.1-9.1-9.1c0-5,4.1-9.1,9.1-9.1c5,0,9.1,4.1,9.1,9.1
		C31.9,84.4,27.8,88.5,22.8,88.5z M32.5,90.8c1.8-1.5,3.3-3.5,4.2-5.8h23.6c0.4,1.9,0.7,3.8,0.8,5.8H32.5z M88.3,90.6H68
		c-0.4,0-0.8-0.4-0.8-0.8S67.5,89,68,89h20.3c0.4,0,0.8,0.4,0.8,0.8S88.7,90.6,88.3,90.6z"/>
	<circle class="st0" cx="41.7" cy="69.4" r="3.9"/>
</g>
<g>
</g>
<g>
</g>
<g>
</g>
<g>
</g>
<g>
</g>
<g>
</g>
</svg>
